<svg width="50" height="49" viewBox="0 0 50 49" fill="none" xmlns="http://www.w3.org/2000/svg">
<path d="M42.1189 6.64528C38.663 3.46255 34.3546 1.30899 29.6968 0.436022C25.0389 -0.43695 20.2238 0.00668434 15.8136 1.71513C11.4034 3.42358 7.57997 6.32636 4.78976 10.0846C1.99955 13.8428 0.357673 18.3014 0.0557956 22.9398C-0.173574 26.2858 0.305874 29.642 1.46399 32.7976C2.62211 35.9532 4.43385 38.8398 6.78528 41.2758C9.12641 43.7098 11.9495 45.6501 15.0818 46.9782C18.2142 48.3064 21.5901 48.9943 25.003 49C25.3586 49 25.6997 48.8615 25.9511 48.6151C26.2026 48.3686 26.3439 48.0343 26.3439 47.6858C26.3439 47.3372 26.2026 47.0029 25.9511 46.7565C25.6997 46.51 25.3586 46.3715 25.003 46.3715C19.2079 46.3717 13.6401 44.1625 9.47729 40.2111C5.3145 36.2597 2.88329 30.8762 2.69798 25.1994C2.51267 19.5225 4.58778 13.9977 8.48434 9.79359C12.3809 5.5895 17.7933 3.03591 23.5765 2.67305C26.6209 2.48223 29.6729 2.90518 32.5439 3.91576C35.415 4.92635 38.0442 6.50311 40.2692 8.54866C42.4941 10.5942 44.2675 13.0651 45.4799 15.8088C46.6923 18.5524 47.3179 21.5106 47.318 24.5005C47.329 27.9477 46.4995 31.3477 44.8985 34.4172C44.309 35.488 43.3207 36.2946 42.1395 36.6691C40.9582 37.0435 39.6752 36.9568 38.5575 36.427L37.8465 36.097C38.2496 35.6999 38.6236 35.3204 38.8967 35.0333C38.9806 34.9447 39.0444 34.8398 39.084 34.7253C39.1235 34.6109 39.1379 34.4895 39.1262 34.3692C39.1144 34.249 39.0768 34.1325 39.0159 34.0274C38.9549 33.9224 38.8719 33.8312 38.7724 33.7599L32.1021 29.5621C31.9945 29.484 31.8719 29.4281 31.7416 29.3976C31.6114 29.3671 31.4762 29.3628 31.3442 29.3849C31.2121 29.4069 31.0861 29.4549 30.9735 29.526C30.8609 29.5971 30.7641 29.6897 30.689 29.7983C30.154 30.5725 28.9334 32.2677 28.9334 32.2677C28.9334 32.2677 26.0782 33.7746 21.0267 28.8236C20.9502 28.7486 20.889 28.6789 20.8155 28.605C20.7401 28.5329 20.6689 28.4729 20.5925 28.398C15.5409 23.447 17.0783 20.6486 17.0783 20.6486C17.0783 20.6486 18.808 19.4523 19.5979 18.9279C19.7088 18.8543 19.8033 18.7594 19.8758 18.6491C19.9483 18.5387 19.9972 18.4152 20.0197 18.2858C20.0422 18.1564 20.0378 18.0239 20.0067 17.8962C19.9757 17.7686 19.9186 17.6484 19.8389 17.5429L15.5559 11.0054C15.4832 10.9079 15.3901 10.8265 15.283 10.7668C15.1758 10.707 15.057 10.6701 14.9342 10.6586C14.8115 10.6471 14.6877 10.6612 14.5709 10.7C14.4541 10.7387 14.347 10.8013 14.2567 10.8835C13.2647 11.7899 11.2173 13.7881 10.904 14.4292C10.1524 16.0123 10.0487 17.8177 10.6144 19.4736C12.0721 23.8118 14.5496 27.7536 17.8471 30.9811C17.9398 31.072 18.0339 31.1512 18.1269 31.24C18.2175 31.3312 18.2984 31.4234 18.3911 31.5143C21.6842 34.7462 25.706 37.1743 30.1323 38.6031C31.8218 39.1575 33.6638 39.0558 35.2791 38.3192C35.4367 38.2332 35.5858 38.1331 35.7247 38.0202L37.4095 38.8022C39.1584 39.6208 41.1622 39.7458 43.0028 39.1512C44.8434 38.5565 46.3786 37.2881 47.2879 35.6108C49.082 32.172 50.0118 28.3628 49.9999 24.5005C49.9941 21.1555 49.2922 17.8468 47.9371 14.7767C46.582 11.7067 44.6023 8.93982 42.1189 6.64528V6.64528Z" fill="#FFA400"/>
</svg>
